<?xml version="1.0" standalone="no"?>
<!DOCTYPE svg PUBLIC "-//W3C//DTD SVG 20010904//EN"
 "http://www.w3.org/TR/2001/REC-SVG-20010904/DTD/svg10.dtd">
<svg version="1.0" xmlns="http://www.w3.org/2000/svg"
 width="16.000000pt" height="16.000000pt" viewBox="0 0 16.000000 16.000000"
 preserveAspectRatio="xMidYMid meet">

<g transform="translate(0.000000,16.000000) scale(0.100000,-0.100000)"
fill="#000000" stroke="none">
<path d="M70 110 c0 -5 5 -10 10 -10 6 0 10 5 10 10 0 6 -4 10 -10 10 -5 0
-10 -4 -10 -10z"/>
<path d="M52 74 c-10 -11 -8 -15 12 -20 14 -3 33 -1 43 5 11 6 13 11 5 11 -7
0 -10 5 -6 11 4 7 1 10 -7 7 -8 -3 -13 -11 -11 -17 1 -6 -2 -11 -7 -11 -5 0
-11 6 -13 14 -3 12 -5 12 -16 0z"/>
</g>
</svg>
